<svg width="32" height="32" viewBox="0 0 32 32" fill="none" xmlns="http://www.w3.org/2000/svg">
<path fill-rule="evenodd" clip-rule="evenodd" d="M15.9639 31.0123C7.45274 31.0123 0.558594 24.0651 0.558594 15.5061C0.558594 14.871 0.598029 14.2437 0.676909 13.6324C0.724238 13.156 0.80312 12.6876 0.913553 12.2271C1.77335 8.18577 4.19498 4.73203 7.52373 2.54069C7.87869 2.3025 8.24154 2.08019 8.61227 1.87376C10.7973 0.682808 13.2978 0 15.9639 0C24.4672 0 31.3614 6.94719 31.3614 15.5061C31.3614 19.8729 29.5708 23.8189 26.6759 26.6375C23.9072 29.3449 20.1288 31.0123 15.9639 31.0123ZM20.694 22.9804C20.0493 22.321 20.1665 21.1672 20.9504 20.3943C21.738 19.6251 22.8993 19.5701 23.5403 20.2075C24.1814 20.8449 24.0641 21.9987 23.2802 22.7716C22.4963 23.5445 21.3387 23.6397 20.694 22.9804ZM28.4789 19.6259C27.988 20.9703 27.9844 22.19 28.4789 22.3805C28.9734 22.571 29.7574 21.6113 30.2482 20.267C30.7391 18.9226 30.7391 17.7029 30.2482 17.5124C29.7574 17.3219 28.9661 18.2816 28.4789 19.6259ZM29.2427 7.68928C29.957 8.9347 30.1732 10.1398 29.7263 10.3999C29.2794 10.649 28.3306 9.86876 27.6163 8.62335C26.9019 7.37793 26.6822 6.1728 27.1327 5.91273C27.5833 5.65266 28.5284 6.44386 29.2427 7.68928ZM16.2506 13.0508C15.8565 13.0508 15.4712 13.1677 15.1435 13.3866C14.8158 13.6056 14.5603 13.9168 14.4095 14.2809C14.2587 14.645 14.2192 15.0457 14.2961 15.4322C14.373 15.8187 14.5628 16.1738 14.8415 16.4525C15.1202 16.7312 15.4753 16.9209 15.8618 16.9978C16.2484 17.0747 16.6491 17.0353 17.0132 16.8844C17.3773 16.7336 17.6886 16.4782 17.9075 16.1505C18.1265 15.8228 18.2434 15.4376 18.2434 15.0435C18.2434 14.515 18.0334 14.0081 17.6597 13.6344C17.286 13.2607 16.7791 13.0508 16.2506 13.0508ZM1.52319 17.5162C1.2631 16.106 1.48656 14.8935 1.99574 14.8019C2.50493 14.714 3.10935 15.78 3.36944 17.1902C3.62953 18.6005 3.40973 19.8129 2.89688 19.9045C2.38404 19.9961 1.78328 18.9265 1.52319 17.5162ZM15.1726 22.0901C14.0737 21.9803 13.1139 22.6359 13.026 23.5553C12.9381 24.4748 13.7586 25.2989 14.8576 25.4052C15.9565 25.5114 16.9126 24.8557 17.0042 23.94C17.0958 23.0242 16.2679 22.1964 15.1726 22.0901ZM25.184 16.7441C24.2682 16.8137 23.455 15.9822 23.3707 14.8833C23.2865 13.788 23.9239 12.8393 24.858 12.7697C25.7921 12.7001 26.6053 13.528 26.6896 14.6269C26.7738 15.7258 26.0998 16.6745 25.184 16.7441ZM20.5956 27.3557C19.2513 27.8466 18.3062 28.6378 18.482 29.125C18.6578 29.6122 19.8923 29.6085 21.2367 29.125C22.5811 28.6415 23.5299 27.8466 23.3504 27.3594C23.1709 26.8722 21.951 26.8686 20.5956 27.3557ZM6.32517 6.55886C5.40571 7.65409 4.33972 8.27314 3.94043 7.93981C3.54481 7.60648 3.9734 6.45263 4.8892 5.35373C5.805 4.25483 6.87098 3.63579 7.27027 3.96912C7.66956 4.30245 7.24463 5.46362 6.32517 6.55886ZM6.29522 11.8686C5.9985 12.9272 6.47471 13.9858 7.36121 14.2349C8.2477 14.484 9.1928 13.821 9.50051 12.7697C9.80821 11.7184 9.31735 10.6488 8.43086 10.4034C7.54436 10.158 6.58827 10.8064 6.29522 11.8686ZM7.42325 20.6288C6.8005 19.7204 6.9104 18.5629 7.66868 18.0464C8.4233 17.5262 9.54424 17.8816 10.167 18.768C10.7897 19.6544 10.6798 20.812 9.92154 21.3321C9.16326 21.8522 8.04599 21.5372 7.42325 20.6288ZM20.7015 9.48742C21.5953 10.1284 22.7529 10.0405 23.2877 9.29328C23.8225 8.54603 23.5331 7.42148 22.6356 6.78046C21.7382 6.13944 20.5843 6.22735 20.0494 6.9746C19.5146 7.72185 19.804 8.84639 20.7015 9.48742ZM8.6775 27.9137C7.43568 27.1958 6.64077 26.2544 6.90086 25.8039C7.16094 25.357 8.36979 25.5694 9.61161 26.2874C10.8534 27.0053 11.6483 27.9504 11.3883 28.3973C11.1282 28.8441 9.91932 28.6317 8.6775 27.9137ZM16.3711 1.98873C17.8034 1.98873 18.9647 1.57115 18.9647 1.05101C18.9647 0.530862 17.8034 0.113281 16.3711 0.113281C14.9388 0.113281 13.7812 0.534525 13.7812 1.05101C13.7812 1.56749 14.9425 1.98873 16.3711 1.98873ZM14.7865 6.06993C15.1675 6.90875 14.662 7.95271 13.6582 8.41058C12.6582 8.86479 11.5336 8.5571 11.1563 7.71828C10.779 6.87945 11.2845 5.83183 12.2845 5.37762C13.2846 4.92341 14.4055 5.2311 14.7865 6.06993Z" fill="#70C6D2"/>
</svg>
