<svg width="25" height="24" viewBox="0 0 25 24" fill="none" xmlns="http://www.w3.org/2000/svg">
<path d="M3.4095 10.8282L4.31811 11.2459L4.31811 11.2459L3.4095 10.8282ZM21.5913 13.1718L20.6827 12.7541L21.5913 13.1718ZM3.4095 13.1718L2.50089 13.5894H2.50089L3.4095 13.1718ZM21.5913 10.8282L20.6827 11.2459V11.2459L21.5913 10.8282ZM18.4678 5.75789C18.0041 5.45792 17.385 5.59066 17.085 6.05438C16.785 6.5181 16.9178 7.13719 17.3815 7.43716L18.4678 5.75789ZM7.6616 16.59C7.19622 16.2926 6.57787 16.4288 6.28049 16.8942C5.98311 17.3596 6.1193 17.9779 6.58469 18.2753L7.6616 16.59ZM3.70093 15.6017C4.03267 16.0432 4.65955 16.1322 5.1011 15.8005C5.54265 15.4687 5.63166 14.8418 5.29992 14.4003L3.70093 15.6017ZM14.3015 6.18005C14.8427 6.28992 15.3706 5.94022 15.4804 5.39897C15.5903 4.85772 15.2406 4.32989 14.6994 4.22002L14.3015 6.18005ZM21.2075 4.70711C21.598 4.31658 21.598 3.68342 21.2075 3.29289C20.817 2.90237 20.1838 2.90237 19.7933 3.29289L21.2075 4.70711ZM3.7933 19.2929C3.40278 19.6834 3.40278 20.3166 3.7933 20.7071C4.18383 21.0976 4.81699 21.0976 5.20752 20.7071L3.7933 19.2929ZM12.5004 4C8.06168 4 4.23907 6.62905 2.50089 10.4106L4.31811 11.2459C5.74213 8.14781 8.8715 6 12.5004 6V4ZM12.5004 20C16.9392 20 20.7618 17.371 22.5 13.5894L20.6827 12.7541C19.2587 15.8522 16.1293 18 12.5004 18V20ZM2.50089 10.4106C2.03746 11.4188 2.03746 12.5812 2.50089 13.5894L4.31811 12.7541C4.09839 12.2761 4.09839 11.7239 4.31811 11.2459L2.50089 10.4106ZM20.6827 11.2459C20.9025 11.7239 20.9025 12.2761 20.6827 12.7541L22.5 13.5894C22.9634 12.5812 22.9634 11.4188 22.5 10.4106L20.6827 11.2459ZM22.5 10.4106C21.6226 8.50182 20.2158 6.88861 18.4678 5.75789L17.3815 7.43716C18.8133 8.36336 19.9653 9.68497 20.6827 11.2459L22.5 10.4106ZM6.58469 18.2753C8.29347 19.3672 10.3246 20 12.5004 20V18C10.7174 18 9.05838 17.4826 7.6616 16.59L6.58469 18.2753ZM2.50089 13.5894C2.82986 14.3051 3.23322 14.9791 3.70093 15.6017L5.29992 14.4003C4.91693 13.8905 4.58699 13.3391 4.31811 12.7541L2.50089 13.5894ZM14.6994 4.22002C13.988 4.07563 13.2525 4 12.5004 4V6C13.1182 6 13.7204 6.06209 14.3015 6.18005L14.6994 4.22002ZM9.67199 14.8284C11.2341 16.3905 13.7667 16.3905 15.3288 14.8284L13.9146 13.4142C13.1336 14.1953 11.8673 14.1953 11.0862 13.4142L9.67199 14.8284ZM15.3288 14.8284C16.8909 13.2663 16.8909 10.7337 15.3288 9.17157L13.9146 10.5858C14.6957 11.3668 14.6957 12.6332 13.9146 13.4142L15.3288 14.8284ZM19.7933 3.29289L3.7933 19.2929L5.20752 20.7071L21.2075 4.70711L19.7933 3.29289Z" fill="#CAC9C9"/>
</svg>
