<?xml version="1.0" encoding="utf-8"?>
<!-- Generator: Adobe Illustrator 28.4.1, SVG Export Plug-In . SVG Version: 6.00 Build 0)  -->
<svg version="1.1" id="Слой_1" xmlns="http://www.w3.org/2000/svg" xmlns:xlink="http://www.w3.org/1999/xlink" x="0px" y="0px"
	 viewBox="0 0 24 24" style="enable-background:new 0 0 24 24;" xml:space="preserve">
<style type="text/css">
	.st0{fill:#CAC9C9;}
</style>
<path class="st0" d="M12,20c-4.3,0-8.2-2.5-10-6.4l0,0c-0.5-1-0.5-2.2,0-3.2C3.8,6.5,7.7,4,12,4c4.3,0,8.2,2.5,10,6.4
	c0.5,1,0.5,2.2,0,3.2C20.2,17.5,16.3,20,12,20z M12,6c-3.5,0-6.7,2.1-8.2,5.2c-0.2,0.5-0.2,1,0,1.5v0C5.3,15.9,8.5,18,12,18
	c3.5,0,6.7-2.1,8.2-5.2c0.2-0.5,0.2-1,0-1.5C18.7,8.1,15.5,6,12,6z"/>
<path class="st0" d="M12,16c-2.2,0-4-1.8-4-4c0-2.2,1.8-4,4-4s4,1.8,4,4C16,14.2,14.2,16,12,16z M12,10c-1.1,0-2,0.9-2,2
	c0,1.1,0.9,2,2,2c1.1,0,2-0.9,2-2C14,10.9,13.1,10,12,10z"/>
</svg>
