<?xml version="1.0" encoding="utf-8"?>
<!-- Generator: Adobe Illustrator 28.4.1, SVG Export Plug-In . SVG Version: 6.00 Build 0)  -->
<svg version="1.1" id="Слой_1" xmlns="http://www.w3.org/2000/svg" xmlns:xlink="http://www.w3.org/1999/xlink" x="0px" y="0px"
	 viewBox="0 0 21 21" style="enable-background:new 0 0 21 21;" xml:space="preserve">
<style type="text/css">
	.st0{fill-rule:evenodd;clip-rule:evenodd;}
</style>
<path class="st0" d="M18.79,5.5l-5.56-4.11C11.6,0.2,9.4,0.2,7.77,1.39L2.22,5.5C1.15,6.27,0.51,7.52,0.5,8.84v7.43
	c0.06,2.39,2.05,4.29,4.44,4.23h11.12c2.39,0.06,4.38-1.84,4.44-4.23V8.83C20.49,7.51,19.86,6.28,18.79,5.5z M19,16.27
	c-0.06,1.56-1.37,2.79-2.94,2.73H4.94C3.38,19.05,2.07,17.83,2,16.27V8.84C2.01,7.99,2.42,7.19,3.11,6.7l5.55-4.1
	c1.1-0.8,2.58-0.8,3.68,0l5.55,4.11c0.69,0.49,1.1,1.28,1.11,2.12V16.27z M6,14.25h9c0.41,0,0.75,0.34,0.75,0.75
	s-0.34,0.75-0.75,0.75H6c-0.41,0-0.75-0.34-0.75-0.75S5.59,14.25,6,14.25z"/>
</svg>
