<?xml version="1.0" encoding="utf-8"?>
<!-- Generator: Adobe Illustrator 28.4.1, SVG Export Plug-In . SVG Version: 6.00 Build 0)  -->
<svg version="1.1" id="Слой_1" xmlns="http://www.w3.org/2000/svg" xmlns:xlink="http://www.w3.org/1999/xlink" x="0px" y="0px"
	 viewBox="0 0 22 18" style="enable-background:new 0 0 22 18;" xml:space="preserve">
<style type="text/css">
	.st0{fill:#CAC9C9;}
</style>
<path class="st0" d="M17.8,17.8H4.2c-1.2,0-1.9,0-2.4-0.3c-0.5-0.3-0.9-0.7-1.2-1.2c-0.3-0.6-0.3-1.2-0.3-2.4V4.2
	c0-1.2,0-1.9,0.3-2.4c0.3-0.5,0.7-0.9,1.2-1.2C2.3,0.2,3,0.2,4.2,0.2h13.6c1.2,0,1.9,0,2.4,0.3c0.5,0.3,0.9,0.7,1.2,1.2
	c0.3,0.6,0.3,1.3,0.3,2.5v9.6c0,1.2,0,1.9-0.3,2.4c-0.3,0.5-0.7,0.9-1.2,1.2C19.7,17.8,19,17.8,17.8,17.8z M1.8,2.8
	c0,0.3,0,0.8,0,1.4v9.6c0,1,0,1.5,0.1,1.8C2,15.8,2.2,16,2.4,16.1c0.3,0.1,0.8,0.1,1.8,0.1h13.6c1,0,1.5,0,1.8-0.1
	c0.2-0.1,0.4-0.3,0.5-0.5c0.1-0.3,0.1-0.8,0.1-1.8V4.2c0-0.6,0-1.1,0-1.4l-7.5,5.8c-1,0.8-2.4,0.8-3.4,0L1.8,2.8z M2.9,1.8l7.3,5.7
	c0.5,0.4,1.1,0.4,1.5,0l7.3-5.7c-0.3,0-0.7,0-1.3,0H4.2C3.6,1.8,3.2,1.8,2.9,1.8z"/>
</svg>
