<svg width="24" height="22" viewBox="0 0 24 22" fill="none" xmlns="http://www.w3.org/2000/svg">
<path d="M24 7.38825C24 7.28527 23.9755 7.18719 23.9215 7.09892L20.3514 0.821847C20.2485 0.6404 20.0523 0.522705 19.8414 0.522705H4.15366C3.94279 0.522705 3.74663 0.635496 3.64365 0.821847L0.0784634 7.09892C0.0294238 7.18719 0 7.28527 0 7.38825C0 8.79569 0.848386 10.0021 2.05966 10.5366V20.8889C2.05966 21.2125 2.32448 21.4773 2.64814 21.4773H21.347C21.6706 21.4773 21.9354 21.2125 21.9354 20.8889V10.6102C21.9354 10.5856 21.9354 10.566 21.9305 10.5464C23.1467 10.0119 24 8.8006 24 7.38825ZM4.49693 1.70456H19.4982L22.2885 6.61343H1.71148L4.49693 1.70456ZM17.0805 7.78548C16.8942 8.84473 15.9673 9.64898 14.8541 9.64898C13.7409 9.64898 12.8141 8.84473 12.6277 7.78548H17.0805ZM11.3772 7.78548C11.1908 8.84473 10.264 9.64898 9.1508 9.64898C8.0376 9.64898 7.11075 8.84473 6.91949 7.78548H11.3772ZM1.21618 7.78548H5.67389C5.48753 8.84473 4.55578 9.64898 3.44258 9.64898C2.32938 9.65389 1.40253 8.84473 1.21618 7.78548ZM9.88639 20.3004H6.50266V13.9498C6.50266 13.4888 6.87536 13.1112 7.34123 13.1112H9.05272C9.51369 13.1112 9.89129 13.4839 9.89129 13.9498V20.3004H9.88639ZM20.7585 20.3004H11.0633V13.9498C11.0633 12.8415 10.161 11.9342 9.04781 11.9342H7.33633C6.22803 11.9342 5.3208 12.8366 5.3208 13.9498V20.3053H3.23662V10.8259C3.30527 10.8308 3.37393 10.8308 3.44258 10.8308C4.62934 10.8308 5.67879 10.2276 6.29669 9.31061C6.91459 10.2276 7.96404 10.8308 9.1508 10.8308C10.3376 10.8308 11.3821 10.2276 12.0049 9.31061C12.6228 10.2276 13.6723 10.8308 14.8541 10.8308C16.0409 10.8308 17.0854 10.2276 17.7033 9.31061C18.3212 10.2276 19.3707 10.8308 20.5574 10.8308C20.6261 10.8308 20.6898 10.8259 20.7585 10.8259V20.3004ZM20.5574 9.65389C19.4442 9.65389 18.5174 8.84964 18.331 7.79038H22.7887C22.5975 8.84473 21.6706 9.65389 20.5574 9.65389Z" fill="#181E22"/>
</svg>
